<mxfile host="app.diagrams.net" agent="Mozilla/5.0 (Windows NT 10.0; Win64; x64) AppleWebKit/537.36 (KHTML, like Gecko) Chrome/130.0.0.0 Safari/537.36" version="24.8.2">
  <diagram name="Página-1" id="_h8fIBSMVifVKv_p_a5-">
    <mxGraphModel dx="2206" dy="2304" grid="1" gridSize="10" guides="1" tooltips="1" connect="1" arrows="1" fold="1" page="1" pageScale="1" pageWidth="827" pageHeight="1169" background="#FAFAFA" math="0" shadow="0">
      <root>
        <mxCell id="0" />
        <mxCell id="1" parent="0" />
        <mxCell id="xPFH18YxJRGejmKSDFNx-33" value="" style="ellipse;shape=doubleEllipse;whiteSpace=wrap;html=1;aspect=fixed;" vertex="1" parent="1">
          <mxGeometry x="610" y="670" width="40" height="40" as="geometry" />
        </mxCell>
        <mxCell id="xPFH18YxJRGejmKSDFNx-37" style="edgeStyle=orthogonalEdgeStyle;rounded=0;orthogonalLoop=1;jettySize=auto;html=1;exitX=1;exitY=0.5;exitDx=0;exitDy=0;exitPerimeter=0;" edge="1" parent="1" source="xPFH18YxJRGejmKSDFNx-35" target="xPFH18YxJRGejmKSDFNx-36">
          <mxGeometry relative="1" as="geometry" />
        </mxCell>
        <mxCell id="xPFH18YxJRGejmKSDFNx-35" value="" style="strokeWidth=2;html=1;shape=mxgraph.flowchart.start_2;whiteSpace=wrap;" vertex="1" parent="1">
          <mxGeometry x="80" y="480" width="40" height="40" as="geometry" />
        </mxCell>
        <mxCell id="xPFH18YxJRGejmKSDFNx-36" value="Tela de Menu" style="rounded=1;whiteSpace=wrap;html=1;absoluteArcSize=1;arcSize=14;strokeWidth=2;" vertex="1" parent="1">
          <mxGeometry x="200" y="465" width="100" height="70" as="geometry" />
        </mxCell>
        <mxCell id="xPFH18YxJRGejmKSDFNx-38" value="" style="shape=curlyBracket;whiteSpace=wrap;html=1;rounded=1;labelPosition=left;verticalLabelPosition=middle;align=right;verticalAlign=middle;" vertex="1" parent="1">
          <mxGeometry x="300" y="430" width="20" height="130" as="geometry" />
        </mxCell>
        <mxCell id="xPFH18YxJRGejmKSDFNx-50" style="edgeStyle=orthogonalEdgeStyle;rounded=0;orthogonalLoop=1;jettySize=auto;html=1;entryX=0;entryY=0.5;entryDx=0;entryDy=0;" edge="1" parent="1" source="xPFH18YxJRGejmKSDFNx-40" target="xPFH18YxJRGejmKSDFNx-46">
          <mxGeometry relative="1" as="geometry" />
        </mxCell>
        <mxCell id="xPFH18YxJRGejmKSDFNx-52" value="[Sim]" style="edgeLabel;html=1;align=center;verticalAlign=middle;resizable=0;points=[];" vertex="1" connectable="0" parent="xPFH18YxJRGejmKSDFNx-50">
          <mxGeometry x="-0.02" y="-1" relative="1" as="geometry">
            <mxPoint as="offset" />
          </mxGeometry>
        </mxCell>
        <mxCell id="xPFH18YxJRGejmKSDFNx-57" style="edgeStyle=orthogonalEdgeStyle;rounded=0;orthogonalLoop=1;jettySize=auto;html=1;entryX=1;entryY=0.5;entryDx=0;entryDy=0;" edge="1" parent="1" source="xPFH18YxJRGejmKSDFNx-40" target="xPFH18YxJRGejmKSDFNx-55">
          <mxGeometry relative="1" as="geometry">
            <Array as="points">
              <mxPoint x="365" y="390" />
            </Array>
          </mxGeometry>
        </mxCell>
        <mxCell id="xPFH18YxJRGejmKSDFNx-59" value="[Não]" style="edgeLabel;html=1;align=center;verticalAlign=middle;resizable=0;points=[];" vertex="1" connectable="0" parent="xPFH18YxJRGejmKSDFNx-57">
          <mxGeometry x="0.2133" y="1" relative="1" as="geometry">
            <mxPoint as="offset" />
          </mxGeometry>
        </mxCell>
        <mxCell id="xPFH18YxJRGejmKSDFNx-40" value="Iniciar Jogo" style="rounded=0;whiteSpace=wrap;html=1;" vertex="1" parent="1">
          <mxGeometry x="320" y="440" width="90" height="30" as="geometry" />
        </mxCell>
        <mxCell id="xPFH18YxJRGejmKSDFNx-62" style="edgeStyle=orthogonalEdgeStyle;rounded=0;orthogonalLoop=1;jettySize=auto;html=1;entryX=0;entryY=0.5;entryDx=0;entryDy=0;" edge="1" parent="1" source="xPFH18YxJRGejmKSDFNx-41" target="xPFH18YxJRGejmKSDFNx-61">
          <mxGeometry relative="1" as="geometry" />
        </mxCell>
        <mxCell id="xPFH18YxJRGejmKSDFNx-64" value="[Sim]" style="edgeLabel;html=1;align=center;verticalAlign=middle;resizable=0;points=[];" vertex="1" connectable="0" parent="xPFH18YxJRGejmKSDFNx-62">
          <mxGeometry x="-0.0095" relative="1" as="geometry">
            <mxPoint as="offset" />
          </mxGeometry>
        </mxCell>
        <mxCell id="xPFH18YxJRGejmKSDFNx-76" style="edgeStyle=orthogonalEdgeStyle;rounded=0;orthogonalLoop=1;jettySize=auto;html=1;entryX=1;entryY=0.5;entryDx=0;entryDy=0;" edge="1" parent="1" source="xPFH18YxJRGejmKSDFNx-41" target="xPFH18YxJRGejmKSDFNx-74">
          <mxGeometry relative="1" as="geometry">
            <Array as="points">
              <mxPoint x="430" y="495" />
              <mxPoint x="430" y="630" />
            </Array>
          </mxGeometry>
        </mxCell>
        <mxCell id="xPFH18YxJRGejmKSDFNx-77" value="[Não]" style="edgeLabel;html=1;align=center;verticalAlign=middle;resizable=0;points=[];" vertex="1" connectable="0" parent="xPFH18YxJRGejmKSDFNx-76">
          <mxGeometry x="0.0286" relative="1" as="geometry">
            <mxPoint as="offset" />
          </mxGeometry>
        </mxCell>
        <mxCell id="xPFH18YxJRGejmKSDFNx-41" value="Configurações" style="rounded=0;whiteSpace=wrap;html=1;" vertex="1" parent="1">
          <mxGeometry x="320" y="480" width="90" height="30" as="geometry" />
        </mxCell>
        <mxCell id="xPFH18YxJRGejmKSDFNx-67" style="edgeStyle=orthogonalEdgeStyle;rounded=0;orthogonalLoop=1;jettySize=auto;html=1;entryX=0;entryY=0.5;entryDx=0;entryDy=0;" edge="1" parent="1" source="xPFH18YxJRGejmKSDFNx-42" target="xPFH18YxJRGejmKSDFNx-65">
          <mxGeometry relative="1" as="geometry" />
        </mxCell>
        <mxCell id="xPFH18YxJRGejmKSDFNx-68" value="[Sim]" style="edgeLabel;html=1;align=center;verticalAlign=middle;resizable=0;points=[];" vertex="1" connectable="0" parent="xPFH18YxJRGejmKSDFNx-67">
          <mxGeometry y="-1" relative="1" as="geometry">
            <mxPoint as="offset" />
          </mxGeometry>
        </mxCell>
        <mxCell id="xPFH18YxJRGejmKSDFNx-79" style="edgeStyle=orthogonalEdgeStyle;rounded=0;orthogonalLoop=1;jettySize=auto;html=1;entryX=1;entryY=0.5;entryDx=0;entryDy=0;" edge="1" parent="1" source="xPFH18YxJRGejmKSDFNx-42" target="xPFH18YxJRGejmKSDFNx-75">
          <mxGeometry relative="1" as="geometry">
            <Array as="points">
              <mxPoint x="460" y="535" />
              <mxPoint x="460" y="680" />
            </Array>
          </mxGeometry>
        </mxCell>
        <mxCell id="xPFH18YxJRGejmKSDFNx-80" value="[Não]" style="edgeLabel;html=1;align=center;verticalAlign=middle;resizable=0;points=[];" vertex="1" connectable="0" parent="xPFH18YxJRGejmKSDFNx-79">
          <mxGeometry relative="1" as="geometry">
            <mxPoint as="offset" />
          </mxGeometry>
        </mxCell>
        <mxCell id="xPFH18YxJRGejmKSDFNx-42" value="Sair do Jogo" style="rounded=0;whiteSpace=wrap;html=1;" vertex="1" parent="1">
          <mxGeometry x="320" y="520" width="90" height="30" as="geometry" />
        </mxCell>
        <mxCell id="xPFH18YxJRGejmKSDFNx-85" style="edgeStyle=orthogonalEdgeStyle;rounded=0;orthogonalLoop=1;jettySize=auto;html=1;entryX=0.5;entryY=1;entryDx=0;entryDy=0;" edge="1" parent="1" source="xPFH18YxJRGejmKSDFNx-46" target="xPFH18YxJRGejmKSDFNx-84">
          <mxGeometry relative="1" as="geometry" />
        </mxCell>
        <mxCell id="xPFH18YxJRGejmKSDFNx-46" value="" style="rhombus;whiteSpace=wrap;html=1;" vertex="1" parent="1">
          <mxGeometry x="620" y="445" width="20" height="20" as="geometry" />
        </mxCell>
        <mxCell id="xPFH18YxJRGejmKSDFNx-58" style="edgeStyle=orthogonalEdgeStyle;rounded=0;orthogonalLoop=1;jettySize=auto;html=1;entryX=0.5;entryY=0;entryDx=0;entryDy=0;" edge="1" parent="1" source="xPFH18YxJRGejmKSDFNx-55" target="xPFH18YxJRGejmKSDFNx-36">
          <mxGeometry relative="1" as="geometry" />
        </mxCell>
        <mxCell id="xPFH18YxJRGejmKSDFNx-55" value="" style="rhombus;whiteSpace=wrap;html=1;" vertex="1" parent="1">
          <mxGeometry x="240" y="380" width="20" height="20" as="geometry" />
        </mxCell>
        <mxCell id="xPFH18YxJRGejmKSDFNx-83" style="edgeStyle=orthogonalEdgeStyle;rounded=0;orthogonalLoop=1;jettySize=auto;html=1;entryX=0;entryY=0.5;entryDx=0;entryDy=0;" edge="1" parent="1" source="xPFH18YxJRGejmKSDFNx-61" target="xPFH18YxJRGejmKSDFNx-82">
          <mxGeometry relative="1" as="geometry" />
        </mxCell>
        <mxCell id="xPFH18YxJRGejmKSDFNx-61" value="" style="rhombus;whiteSpace=wrap;html=1;" vertex="1" parent="1">
          <mxGeometry x="620" y="485" width="20" height="20" as="geometry" />
        </mxCell>
        <mxCell id="xPFH18YxJRGejmKSDFNx-70" style="edgeStyle=orthogonalEdgeStyle;rounded=0;orthogonalLoop=1;jettySize=auto;html=1;entryX=0.5;entryY=0;entryDx=0;entryDy=0;" edge="1" parent="1" source="xPFH18YxJRGejmKSDFNx-65" target="xPFH18YxJRGejmKSDFNx-33">
          <mxGeometry relative="1" as="geometry" />
        </mxCell>
        <mxCell id="xPFH18YxJRGejmKSDFNx-65" value="" style="rhombus;whiteSpace=wrap;html=1;" vertex="1" parent="1">
          <mxGeometry x="620" y="525" width="20" height="20" as="geometry" />
        </mxCell>
        <mxCell id="xPFH18YxJRGejmKSDFNx-72" value="Fecha o programa" style="text;html=1;align=center;verticalAlign=middle;resizable=0;points=[];autosize=1;strokeColor=none;fillColor=none;" vertex="1" parent="1">
          <mxGeometry x="570" y="720" width="120" height="30" as="geometry" />
        </mxCell>
        <mxCell id="xPFH18YxJRGejmKSDFNx-73" value="Inicia o programa" style="text;html=1;align=center;verticalAlign=middle;resizable=0;points=[];autosize=1;strokeColor=none;fillColor=none;" vertex="1" parent="1">
          <mxGeometry x="40" y="525" width="120" height="30" as="geometry" />
        </mxCell>
        <mxCell id="xPFH18YxJRGejmKSDFNx-78" style="edgeStyle=orthogonalEdgeStyle;rounded=0;orthogonalLoop=1;jettySize=auto;html=1;" edge="1" parent="1" source="xPFH18YxJRGejmKSDFNx-74">
          <mxGeometry relative="1" as="geometry">
            <mxPoint x="250" y="540" as="targetPoint" />
          </mxGeometry>
        </mxCell>
        <mxCell id="xPFH18YxJRGejmKSDFNx-74" value="" style="rhombus;whiteSpace=wrap;html=1;" vertex="1" parent="1">
          <mxGeometry x="355" y="620" width="20" height="20" as="geometry" />
        </mxCell>
        <mxCell id="xPFH18YxJRGejmKSDFNx-81" style="edgeStyle=orthogonalEdgeStyle;rounded=0;orthogonalLoop=1;jettySize=auto;html=1;" edge="1" parent="1" source="xPFH18YxJRGejmKSDFNx-75">
          <mxGeometry relative="1" as="geometry">
            <mxPoint x="250" y="540" as="targetPoint" />
          </mxGeometry>
        </mxCell>
        <mxCell id="xPFH18YxJRGejmKSDFNx-75" value="" style="rhombus;whiteSpace=wrap;html=1;" vertex="1" parent="1">
          <mxGeometry x="355" y="670" width="20" height="20" as="geometry" />
        </mxCell>
        <mxCell id="xPFH18YxJRGejmKSDFNx-82" value="Tela de Configuração" style="rounded=1;whiteSpace=wrap;html=1;absoluteArcSize=1;arcSize=14;strokeWidth=2;" vertex="1" parent="1">
          <mxGeometry x="800" y="460" width="100" height="70" as="geometry" />
        </mxCell>
        <mxCell id="xPFH18YxJRGejmKSDFNx-99" style="edgeStyle=orthogonalEdgeStyle;rounded=0;orthogonalLoop=1;jettySize=auto;html=1;" edge="1" parent="1" source="xPFH18YxJRGejmKSDFNx-84" target="xPFH18YxJRGejmKSDFNx-98">
          <mxGeometry relative="1" as="geometry" />
        </mxCell>
        <mxCell id="xPFH18YxJRGejmKSDFNx-84" value="Cutscene" style="rounded=1;whiteSpace=wrap;html=1;absoluteArcSize=1;arcSize=14;strokeWidth=2;" vertex="1" parent="1">
          <mxGeometry x="580" y="270" width="100" height="70" as="geometry" />
        </mxCell>
        <mxCell id="xPFH18YxJRGejmKSDFNx-86" value="" style="shape=curlyBracket;whiteSpace=wrap;html=1;rounded=1;labelPosition=left;verticalLabelPosition=middle;align=right;verticalAlign=middle;" vertex="1" parent="1">
          <mxGeometry x="900" y="430" width="20" height="130" as="geometry" />
        </mxCell>
        <mxCell id="xPFH18YxJRGejmKSDFNx-87" value="Volume" style="rounded=0;whiteSpace=wrap;html=1;" vertex="1" parent="1">
          <mxGeometry x="920" y="440" width="90" height="30" as="geometry" />
        </mxCell>
        <mxCell id="xPFH18YxJRGejmKSDFNx-88" value="Resolução" style="rounded=0;whiteSpace=wrap;html=1;" vertex="1" parent="1">
          <mxGeometry x="920" y="480" width="90" height="30" as="geometry" />
        </mxCell>
        <mxCell id="xPFH18YxJRGejmKSDFNx-91" value="" style="edgeStyle=orthogonalEdgeStyle;rounded=0;orthogonalLoop=1;jettySize=auto;html=1;" edge="1" parent="1" source="xPFH18YxJRGejmKSDFNx-89" target="xPFH18YxJRGejmKSDFNx-90">
          <mxGeometry relative="1" as="geometry" />
        </mxCell>
        <mxCell id="xPFH18YxJRGejmKSDFNx-93" value="[Sim]" style="edgeLabel;html=1;align=center;verticalAlign=middle;resizable=0;points=[];" vertex="1" connectable="0" parent="xPFH18YxJRGejmKSDFNx-91">
          <mxGeometry x="0.0084" y="1" relative="1" as="geometry">
            <mxPoint as="offset" />
          </mxGeometry>
        </mxCell>
        <mxCell id="xPFH18YxJRGejmKSDFNx-89" value="Voltar" style="rounded=0;whiteSpace=wrap;html=1;" vertex="1" parent="1">
          <mxGeometry x="920" y="520" width="90" height="30" as="geometry" />
        </mxCell>
        <mxCell id="xPFH18YxJRGejmKSDFNx-96" style="edgeStyle=orthogonalEdgeStyle;rounded=0;orthogonalLoop=1;jettySize=auto;html=1;entryX=0.5;entryY=1;entryDx=0;entryDy=0;" edge="1" parent="1" source="xPFH18YxJRGejmKSDFNx-90" target="xPFH18YxJRGejmKSDFNx-82">
          <mxGeometry relative="1" as="geometry" />
        </mxCell>
        <mxCell id="xPFH18YxJRGejmKSDFNx-90" value="" style="rhombus;whiteSpace=wrap;html=1;" vertex="1" parent="1">
          <mxGeometry x="955" y="640" width="20" height="20" as="geometry" />
        </mxCell>
        <mxCell id="xPFH18YxJRGejmKSDFNx-101" style="edgeStyle=orthogonalEdgeStyle;rounded=0;orthogonalLoop=1;jettySize=auto;html=1;entryX=0.5;entryY=1;entryDx=0;entryDy=0;" edge="1" parent="1" source="xPFH18YxJRGejmKSDFNx-98" target="xPFH18YxJRGejmKSDFNx-100">
          <mxGeometry relative="1" as="geometry" />
        </mxCell>
        <mxCell id="xPFH18YxJRGejmKSDFNx-98" value="Tela Inicial" style="rounded=1;whiteSpace=wrap;html=1;absoluteArcSize=1;arcSize=14;strokeWidth=2;" vertex="1" parent="1">
          <mxGeometry x="580" y="130" width="100" height="70" as="geometry" />
        </mxCell>
        <mxCell id="xPFH18YxJRGejmKSDFNx-100" value="Tela da Casa do personagem" style="rounded=1;whiteSpace=wrap;html=1;absoluteArcSize=1;arcSize=14;strokeWidth=2;" vertex="1" parent="1">
          <mxGeometry x="580" y="-10" width="100" height="70" as="geometry" />
        </mxCell>
        <mxCell id="xPFH18YxJRGejmKSDFNx-104" value="" style="shape=curlyBracket;whiteSpace=wrap;html=1;rounded=1;labelPosition=left;verticalLabelPosition=middle;align=right;verticalAlign=middle;" vertex="1" parent="1">
          <mxGeometry x="680" y="-40" width="20" height="130" as="geometry" />
        </mxCell>
        <mxCell id="xPFH18YxJRGejmKSDFNx-105" value="Comprar equipamento" style="rounded=0;whiteSpace=wrap;html=1;" vertex="1" parent="1">
          <mxGeometry x="700" y="-30" width="90" height="30" as="geometry" />
        </mxCell>
        <mxCell id="xPFH18YxJRGejmKSDFNx-109" style="edgeStyle=orthogonalEdgeStyle;rounded=0;orthogonalLoop=1;jettySize=auto;html=1;" edge="1" parent="1" source="xPFH18YxJRGejmKSDFNx-113" target="xPFH18YxJRGejmKSDFNx-108">
          <mxGeometry relative="1" as="geometry" />
        </mxCell>
        <mxCell id="xPFH18YxJRGejmKSDFNx-106" value="Iniciar o Dia" style="rounded=0;whiteSpace=wrap;html=1;" vertex="1" parent="1">
          <mxGeometry x="700" y="10" width="90" height="30" as="geometry" />
        </mxCell>
        <mxCell id="xPFH18YxJRGejmKSDFNx-107" value="Organizar o inventário" style="rounded=0;whiteSpace=wrap;html=1;" vertex="1" parent="1">
          <mxGeometry x="700" y="50" width="90" height="30" as="geometry" />
        </mxCell>
        <mxCell id="xPFH18YxJRGejmKSDFNx-108" value="Cena do mar&lt;div&gt;(gameplay)&lt;/div&gt;" style="rounded=1;whiteSpace=wrap;html=1;absoluteArcSize=1;arcSize=14;strokeWidth=2;" vertex="1" parent="1">
          <mxGeometry x="1010" y="-10" width="100" height="70" as="geometry" />
        </mxCell>
        <mxCell id="xPFH18YxJRGejmKSDFNx-114" value="" style="edgeStyle=orthogonalEdgeStyle;rounded=0;orthogonalLoop=1;jettySize=auto;html=1;" edge="1" parent="1" source="xPFH18YxJRGejmKSDFNx-106" target="xPFH18YxJRGejmKSDFNx-113">
          <mxGeometry relative="1" as="geometry">
            <mxPoint x="790" y="25" as="sourcePoint" />
            <mxPoint x="1030" y="25" as="targetPoint" />
          </mxGeometry>
        </mxCell>
        <mxCell id="xPFH18YxJRGejmKSDFNx-115" value="[Sim]" style="edgeLabel;html=1;align=center;verticalAlign=middle;resizable=0;points=[];" vertex="1" connectable="0" parent="xPFH18YxJRGejmKSDFNx-114">
          <mxGeometry x="-0.0727" relative="1" as="geometry">
            <mxPoint as="offset" />
          </mxGeometry>
        </mxCell>
        <mxCell id="xPFH18YxJRGejmKSDFNx-113" value="" style="rhombus;whiteSpace=wrap;html=1;" vertex="1" parent="1">
          <mxGeometry x="900" y="15" width="20" height="20" as="geometry" />
        </mxCell>
        <mxCell id="xPFH18YxJRGejmKSDFNx-117" value="" style="shape=curlyBracket;whiteSpace=wrap;html=1;rounded=1;labelPosition=left;verticalLabelPosition=middle;align=right;verticalAlign=middle;" vertex="1" parent="1">
          <mxGeometry x="1110" y="-40" width="20" height="140" as="geometry" />
        </mxCell>
        <mxCell id="xPFH18YxJRGejmKSDFNx-136" style="edgeStyle=orthogonalEdgeStyle;rounded=0;orthogonalLoop=1;jettySize=auto;html=1;entryX=0.5;entryY=0;entryDx=0;entryDy=0;" edge="1" parent="1" source="xPFH18YxJRGejmKSDFNx-118" target="xPFH18YxJRGejmKSDFNx-108">
          <mxGeometry relative="1" as="geometry">
            <mxPoint x="1060" y="-90" as="targetPoint" />
            <Array as="points">
              <mxPoint x="1281" y="-15" />
              <mxPoint x="1281" y="-70" />
              <mxPoint x="1060" y="-70" />
            </Array>
          </mxGeometry>
        </mxCell>
        <mxCell id="xPFH18YxJRGejmKSDFNx-142" value="[Não]" style="edgeLabel;html=1;align=center;verticalAlign=middle;resizable=0;points=[];" vertex="1" connectable="0" parent="xPFH18YxJRGejmKSDFNx-136">
          <mxGeometry x="-0.2494" y="2" relative="1" as="geometry">
            <mxPoint as="offset" />
          </mxGeometry>
        </mxCell>
        <mxCell id="xPFH18YxJRGejmKSDFNx-144" style="edgeStyle=orthogonalEdgeStyle;rounded=0;orthogonalLoop=1;jettySize=auto;html=1;entryX=0.5;entryY=1;entryDx=0;entryDy=0;" edge="1" parent="1" source="xPFH18YxJRGejmKSDFNx-118" target="xPFH18YxJRGejmKSDFNx-143">
          <mxGeometry relative="1" as="geometry" />
        </mxCell>
        <mxCell id="xPFH18YxJRGejmKSDFNx-145" value="[Sim]" style="edgeLabel;html=1;align=center;verticalAlign=middle;resizable=0;points=[];" vertex="1" connectable="0" parent="xPFH18YxJRGejmKSDFNx-144">
          <mxGeometry x="-0.4" y="1" relative="1" as="geometry">
            <mxPoint as="offset" />
          </mxGeometry>
        </mxCell>
        <mxCell id="xPFH18YxJRGejmKSDFNx-118" value="Terminou de Limpar?" style="rounded=0;whiteSpace=wrap;html=1;" vertex="1" parent="1">
          <mxGeometry x="1130" y="-30" width="90" height="30" as="geometry" />
        </mxCell>
        <mxCell id="xPFH18YxJRGejmKSDFNx-131" style="edgeStyle=orthogonalEdgeStyle;rounded=0;orthogonalLoop=1;jettySize=auto;html=1;entryX=0;entryY=0.5;entryDx=0;entryDy=0;" edge="1" parent="1" source="xPFH18YxJRGejmKSDFNx-119" target="xPFH18YxJRGejmKSDFNx-129">
          <mxGeometry relative="1" as="geometry" />
        </mxCell>
        <mxCell id="xPFH18YxJRGejmKSDFNx-133" value="[Sim]" style="edgeLabel;html=1;align=center;verticalAlign=middle;resizable=0;points=[];" vertex="1" connectable="0" parent="xPFH18YxJRGejmKSDFNx-131">
          <mxGeometry x="-0.0222" relative="1" as="geometry">
            <mxPoint as="offset" />
          </mxGeometry>
        </mxCell>
        <mxCell id="xPFH18YxJRGejmKSDFNx-147" style="edgeStyle=orthogonalEdgeStyle;rounded=0;orthogonalLoop=1;jettySize=auto;html=1;entryX=1;entryY=0.5;entryDx=0;entryDy=0;" edge="1" parent="1" target="xPFH18YxJRGejmKSDFNx-148">
          <mxGeometry relative="1" as="geometry">
            <mxPoint x="1240" y="150" as="targetPoint" />
            <mxPoint x="1210" y="30" as="sourcePoint" />
            <Array as="points">
              <mxPoint x="1210" y="31" />
              <mxPoint x="1240" y="31" />
              <mxPoint x="1240" y="140" />
            </Array>
          </mxGeometry>
        </mxCell>
        <mxCell id="xPFH18YxJRGejmKSDFNx-149" value="[Não]" style="edgeLabel;html=1;align=center;verticalAlign=middle;resizable=0;points=[];" vertex="1" connectable="0" parent="xPFH18YxJRGejmKSDFNx-147">
          <mxGeometry x="0.0564" y="1" relative="1" as="geometry">
            <mxPoint as="offset" />
          </mxGeometry>
        </mxCell>
        <mxCell id="xPFH18YxJRGejmKSDFNx-119" value="Oxigênio acabando?" style="rounded=0;whiteSpace=wrap;html=1;" vertex="1" parent="1">
          <mxGeometry x="1130" y="15" width="90" height="30" as="geometry" />
        </mxCell>
        <mxCell id="xPFH18YxJRGejmKSDFNx-125" style="edgeStyle=orthogonalEdgeStyle;rounded=0;orthogonalLoop=1;jettySize=auto;html=1;entryX=0;entryY=0.5;entryDx=0;entryDy=0;" edge="1" parent="1" source="xPFH18YxJRGejmKSDFNx-123" target="xPFH18YxJRGejmKSDFNx-124">
          <mxGeometry relative="1" as="geometry" />
        </mxCell>
        <mxCell id="xPFH18YxJRGejmKSDFNx-126" value="[Sim]" style="edgeLabel;html=1;align=center;verticalAlign=middle;resizable=0;points=[];" vertex="1" connectable="0" parent="xPFH18YxJRGejmKSDFNx-125">
          <mxGeometry x="-0.0889" relative="1" as="geometry">
            <mxPoint as="offset" />
          </mxGeometry>
        </mxCell>
        <mxCell id="xPFH18YxJRGejmKSDFNx-123" value="Surto" style="rounded=0;whiteSpace=wrap;html=1;" vertex="1" parent="1">
          <mxGeometry x="1130" y="60" width="90" height="30" as="geometry" />
        </mxCell>
        <mxCell id="xPFH18YxJRGejmKSDFNx-128" style="edgeStyle=orthogonalEdgeStyle;rounded=0;orthogonalLoop=1;jettySize=auto;html=1;" edge="1" parent="1" source="xPFH18YxJRGejmKSDFNx-124" target="xPFH18YxJRGejmKSDFNx-127">
          <mxGeometry relative="1" as="geometry" />
        </mxCell>
        <mxCell id="xPFH18YxJRGejmKSDFNx-124" value="" style="rhombus;whiteSpace=wrap;html=1;" vertex="1" parent="1">
          <mxGeometry x="1310" y="65" width="20" height="20" as="geometry" />
        </mxCell>
        <mxCell id="xPFH18YxJRGejmKSDFNx-127" value="Cena do mar&lt;div&gt;(Versão do mal)&lt;/div&gt;" style="rounded=1;whiteSpace=wrap;html=1;absoluteArcSize=1;arcSize=14;strokeWidth=2;" vertex="1" parent="1">
          <mxGeometry x="1270" y="200" width="100" height="70" as="geometry" />
        </mxCell>
        <mxCell id="xPFH18YxJRGejmKSDFNx-134" style="edgeStyle=orthogonalEdgeStyle;rounded=0;orthogonalLoop=1;jettySize=auto;html=1;entryX=0.5;entryY=0;entryDx=0;entryDy=0;" edge="1" parent="1" source="xPFH18YxJRGejmKSDFNx-129" target="xPFH18YxJRGejmKSDFNx-100">
          <mxGeometry relative="1" as="geometry">
            <Array as="points">
              <mxPoint x="1320" y="-140" />
              <mxPoint x="630" y="-140" />
            </Array>
          </mxGeometry>
        </mxCell>
        <mxCell id="xPFH18YxJRGejmKSDFNx-129" value="" style="rhombus;whiteSpace=wrap;html=1;" vertex="1" parent="1">
          <mxGeometry x="1310" y="20" width="20" height="20" as="geometry" />
        </mxCell>
        <mxCell id="xPFH18YxJRGejmKSDFNx-141" value="" style="rhombus;whiteSpace=wrap;html=1;" vertex="1" parent="1">
          <mxGeometry x="1165" y="-80" width="20" height="20" as="geometry" />
        </mxCell>
        <mxCell id="xPFH18YxJRGejmKSDFNx-146" style="edgeStyle=orthogonalEdgeStyle;rounded=0;orthogonalLoop=1;jettySize=auto;html=1;entryX=0.5;entryY=0;entryDx=0;entryDy=0;" edge="1" parent="1" source="xPFH18YxJRGejmKSDFNx-143" target="xPFH18YxJRGejmKSDFNx-100">
          <mxGeometry relative="1" as="geometry">
            <mxPoint x="630" y="-110" as="targetPoint" />
          </mxGeometry>
        </mxCell>
        <mxCell id="xPFH18YxJRGejmKSDFNx-143" value="" style="rhombus;whiteSpace=wrap;html=1;" vertex="1" parent="1">
          <mxGeometry x="1165" y="-120" width="20" height="20" as="geometry" />
        </mxCell>
        <mxCell id="xPFH18YxJRGejmKSDFNx-150" style="edgeStyle=orthogonalEdgeStyle;rounded=0;orthogonalLoop=1;jettySize=auto;html=1;entryX=0.5;entryY=1;entryDx=0;entryDy=0;" edge="1" parent="1" source="xPFH18YxJRGejmKSDFNx-148" target="xPFH18YxJRGejmKSDFNx-108">
          <mxGeometry relative="1" as="geometry" />
        </mxCell>
        <mxCell id="xPFH18YxJRGejmKSDFNx-148" value="" style="rhombus;whiteSpace=wrap;html=1;" vertex="1" parent="1">
          <mxGeometry x="1165" y="130" width="20" height="20" as="geometry" />
        </mxCell>
        <mxCell id="xPFH18YxJRGejmKSDFNx-152" value="" style="shape=curlyBracket;whiteSpace=wrap;html=1;rounded=1;labelPosition=left;verticalLabelPosition=middle;align=right;verticalAlign=middle;" vertex="1" parent="1">
          <mxGeometry x="1370" y="165" width="20" height="140" as="geometry" />
        </mxCell>
        <mxCell id="xPFH18YxJRGejmKSDFNx-157" style="edgeStyle=orthogonalEdgeStyle;rounded=0;orthogonalLoop=1;jettySize=auto;html=1;" edge="1" parent="1" source="xPFH18YxJRGejmKSDFNx-153" target="xPFH18YxJRGejmKSDFNx-156">
          <mxGeometry relative="1" as="geometry" />
        </mxCell>
        <mxCell id="xPFH18YxJRGejmKSDFNx-158" value="[Sim]" style="edgeLabel;html=1;align=center;verticalAlign=middle;resizable=0;points=[];" vertex="1" connectable="0" parent="xPFH18YxJRGejmKSDFNx-157">
          <mxGeometry x="-0.1081" relative="1" as="geometry">
            <mxPoint as="offset" />
          </mxGeometry>
        </mxCell>
        <mxCell id="xPFH18YxJRGejmKSDFNx-153" value="Morreu?" style="rounded=0;whiteSpace=wrap;html=1;" vertex="1" parent="1">
          <mxGeometry x="1390" y="190" width="90" height="30" as="geometry" />
        </mxCell>
        <mxCell id="xPFH18YxJRGejmKSDFNx-161" style="edgeStyle=orthogonalEdgeStyle;rounded=0;orthogonalLoop=1;jettySize=auto;html=1;entryX=0.5;entryY=1;entryDx=0;entryDy=0;" edge="1" parent="1" source="xPFH18YxJRGejmKSDFNx-154" target="xPFH18YxJRGejmKSDFNx-108">
          <mxGeometry relative="1" as="geometry">
            <Array as="points">
              <mxPoint x="1435" y="320" />
              <mxPoint x="1060" y="320" />
            </Array>
          </mxGeometry>
        </mxCell>
        <mxCell id="xPFH18YxJRGejmKSDFNx-154" value="Sobreviveu?" style="rounded=0;whiteSpace=wrap;html=1;" vertex="1" parent="1">
          <mxGeometry x="1390" y="250" width="90" height="30" as="geometry" />
        </mxCell>
        <mxCell id="xPFH18YxJRGejmKSDFNx-155" value="" style="ellipse;shape=doubleEllipse;whiteSpace=wrap;html=1;aspect=fixed;" vertex="1" parent="1">
          <mxGeometry x="1590" y="185" width="40" height="40" as="geometry" />
        </mxCell>
        <mxCell id="xPFH18YxJRGejmKSDFNx-159" style="edgeStyle=orthogonalEdgeStyle;rounded=0;orthogonalLoop=1;jettySize=auto;html=1;entryX=0;entryY=0.5;entryDx=0;entryDy=0;" edge="1" parent="1" source="xPFH18YxJRGejmKSDFNx-156" target="xPFH18YxJRGejmKSDFNx-155">
          <mxGeometry relative="1" as="geometry" />
        </mxCell>
        <mxCell id="xPFH18YxJRGejmKSDFNx-156" value="" style="rhombus;whiteSpace=wrap;html=1;" vertex="1" parent="1">
          <mxGeometry x="1540" y="195" width="20" height="20" as="geometry" />
        </mxCell>
        <mxCell id="xPFH18YxJRGejmKSDFNx-160" value="GameOver" style="text;html=1;align=center;verticalAlign=middle;resizable=0;points=[];autosize=1;strokeColor=none;fillColor=none;" vertex="1" parent="1">
          <mxGeometry x="1570" y="225" width="80" height="30" as="geometry" />
        </mxCell>
      </root>
    </mxGraphModel>
  </diagram>
</mxfile>
